<svg width="23" height="32" viewBox="0 0 23 32" fill="none" xmlns="http://www.w3.org/2000/svg">
<path d="M22.0229 11.4907C22.0357 9.63102 21.5505 7.80175 20.6177 6.19285C19.6849 4.58395 18.3384 3.25407 16.718 2.34127C15.0977 1.42847 13.2625 0.966023 11.4031 1.00194C9.54368 1.03786 7.72777 1.57084 6.14388 2.54554C4.55999 3.52024 3.26587 4.90114 2.39586 6.54486C1.52586 8.18859 1.11169 10.0352 1.19635 11.8931C1.28101 13.7509 1.86141 15.5522 2.87731 17.11C3.8932 18.6678 5.30755 19.9253 6.97352 20.7519V24.2248C6.97352 24.5318 7.09548 24.8263 7.31258 25.0434C7.52968 25.2605 7.82414 25.3825 8.13116 25.3825H15.077C15.384 25.3825 15.6785 25.2605 15.8956 25.0434C16.1127 24.8263 16.2347 24.5318 16.2347 24.2248V20.7519C17.9653 19.8992 19.4238 18.5808 20.4463 16.9448C21.4689 15.3088 22.0148 13.42 22.0229 11.4907V11.4907Z" stroke="white" stroke-linecap="round" stroke-linejoin="round"/>
<path d="M6.97363 31.1704H16.2348" stroke="white" stroke-linecap="round" stroke-linejoin="round"/>
</svg>
