<svg width="32" height="32" viewBox="0 0 32 32" fill="none" xmlns="http://www.w3.org/2000/svg">
<path d="M1 31.1123H26.4682" stroke="white" stroke-linecap="round" stroke-linejoin="round"/>
<path d="M14.8917 23.0087L7.9458 24.2589L9.10344 17.2204L24.6853 1.68486C24.9006 1.46785 25.1566 1.29561 25.4388 1.17806C25.7209 1.06052 26.0235 1 26.3292 1C26.6348 1 26.9374 1.06052 27.2196 1.17806C27.5017 1.29561 27.7578 1.46785 27.973 1.68486L30.4272 4.13906C30.6442 4.3543 30.8165 4.61037 30.934 4.89251C31.0516 5.17465 31.1121 5.47727 31.1121 5.78292C31.1121 6.08856 31.0516 6.39118 30.934 6.67332C30.8165 6.95546 30.6442 7.21153 30.4272 7.42677L14.8917 23.0087Z" stroke="white" stroke-linecap="round" stroke-linejoin="round"/>
</svg>
