<svg width="32" height="31" viewBox="0 0 32 31" fill="none" xmlns="http://www.w3.org/2000/svg">
<path d="M17.1647 1.72996L20.8426 9.21464C20.9263 9.40461 21.0579 9.56916 21.2243 9.6919C21.3907 9.81463 21.5861 9.89126 21.791 9.91414L29.9101 11.1266C30.1452 11.1571 30.3669 11.2543 30.5492 11.407C30.7315 11.5597 30.8669 11.7615 30.9397 11.9889C31.0124 12.2163 31.0195 12.4598 30.9601 12.6911C30.9007 12.9224 30.7772 13.1319 30.6041 13.2951L24.7518 19.1476C24.6025 19.2882 24.4904 19.4643 24.4257 19.6598C24.3611 19.8553 24.346 20.0639 24.3817 20.2668L25.7927 28.4976C25.8336 28.7341 25.8078 28.9774 25.7182 29.1999C25.6287 29.4223 25.4789 29.6149 25.2861 29.7558C25.0933 29.8967 24.8651 29.9803 24.6276 29.9969C24.39 30.0136 24.1525 29.9626 23.9422 29.85L16.6327 25.9561C16.4455 25.8634 16.2398 25.8153 16.0313 25.8153C15.8228 25.8153 15.617 25.8634 15.4299 25.9561L8.12032 29.85C7.91003 29.9626 7.67258 30.0136 7.435 29.9969C7.19742 29.9803 6.96924 29.8967 6.77642 29.7558C6.58361 29.6149 6.4339 29.4223 6.34434 29.1999C6.25478 28.9774 6.22896 28.7341 6.26981 28.4976L7.68083 20.1735C7.71659 19.9706 7.70146 19.762 7.63682 19.5665C7.57218 19.371 7.46009 19.195 7.31072 19.0543L1.38908 13.2951C1.21388 13.1274 1.09068 12.9121 1.03439 12.6753C0.978095 12.4385 0.99113 12.1904 1.07191 11.9609C1.1527 11.7314 1.29776 11.5304 1.48954 11.3824C1.68131 11.2343 1.91157 11.1455 2.15241 11.1266L10.2715 9.91414C10.4765 9.89126 10.6719 9.81463 10.8383 9.6919C11.0047 9.56916 11.1363 9.40461 11.2199 9.21464L14.8978 1.72996C14.998 1.51197 15.1579 1.32741 15.3588 1.19807C15.5596 1.06873 15.793 1 16.0313 1C16.2696 1 16.503 1.06873 16.7038 1.19807C16.9046 1.32741 17.0646 1.51197 17.1647 1.72996V1.72996Z" stroke="white" stroke-linecap="round" stroke-linejoin="round"/>
</svg>
