<svg xmlns="http://www.w3.org/2000/svg" width="210.461" height="174.617" viewBox="0 0 210.461 174.617">
  <path id="Path_76941" data-name="Path 76941" d="M-5.53-190.336l22.4-85.688h-44.8L-57.615-196.5c-10.081,25.763-12.321,35.284-12.321,48.165,0,26.883,19.042,45.925,45.925,45.925,25.2,0,44.8-18.482,44.8-45.925C20.793-169.053,10.712-183.615-5.53-190.336Zm118.732,0,22.4-85.688H90.8L61.117-196.5C51.036-170.734,48.8-161.213,48.8-148.331c0,26.883,19.042,45.925,45.925,45.925,25.2,0,44.8-18.482,44.8-45.925C139.525-169.053,129.444-183.615,113.2-190.336Z" transform="translate(70.436 276.524)" fill="none" stroke="#fff" stroke-width="1"/>
</svg>